<svg xmlns="http://www.w3.org/2000/svg" xmlns:xlink="http://www.w3.org/1999/xlink" width="1080" zoomAndPan="magnify" viewBox="0 0 810 809.999993" height="1080" preserveAspectRatio="xMidYMid meet" version="1.0"><defs><clipPath id="3b11960d24"><path d="M 469 260 L 748.894531 260 L 748.894531 560 L 469 560 Z M 469 260 " clip-rule="nonzero"/></clipPath></defs><path fill="#090000" d="M 473.292969 165.882812 C 473.410156 165.804688 473.53125 165.730469 473.648438 165.652344 C 475.722656 164.285156 475.023438 160.796875 472.34375 160.824219 C 463.6875 160.914062 454.933594 160.667969 446.300781 161.351562 C 444.183594 161.519531 442.070312 161.652344 439.953125 161.773438 C 432.550781 161.980469 425.152344 162.117188 417.753906 162.480469 C 413.070312 162.710938 408.386719 163.027344 403.703125 163.320312 C 401.910156 163.433594 401.089844 165 401.234375 166.382812 C 401.199219 167.707031 402.019531 168.980469 403.714844 168.832031 C 412.339844 168.09375 420.890625 167.648438 429.546875 167.414062 C 433.355469 167.3125 437.152344 167.105469 440.949219 166.894531 C 446.441406 166.722656 451.9375 166.511719 457.433594 166.222656 C 458.445312 166.167969 459.457031 166.148438 460.46875 166.136719 C 460.820312 166.132812 461.175781 166.128906 461.527344 166.125 C 462.121094 166.125 462.714844 166.132812 463.308594 166.140625 C 461.261719 167.414062 459.191406 168.660156 457.066406 169.851562 C 454.976562 171.027344 452.949219 172.105469 450.761719 173.085938 C 448.390625 174.152344 445.84375 175.058594 443.601562 176.382812 C 440.839844 178.011719 438.183594 179.84375 435.386719 181.421875 C 433.035156 182.746094 430.496094 183.804688 428.066406 184.976562 C 427.480469 185.261719 426.886719 185.53125 426.304688 185.828125 C 426.253906 185.851562 426.234375 185.863281 426.195312 185.882812 C 424.722656 186.371094 423.28125 186.988281 421.828125 187.535156 C 419.582031 188.386719 417.355469 189.261719 415.066406 189.992188 C 412.113281 190.933594 408.773438 191.578125 406.015625 193.011719 C 403.085938 194.53125 400.238281 196.230469 397.359375 197.835938 C 396.285156 198.429688 395.964844 199.632812 396.167969 200.757812 C 396.722656 203.84375 397.28125 206.929688 397.835938 210.015625 C 398.101562 211.480469 398.519531 212.914062 398.96875 214.335938 C 398.65625 214.609375 398.347656 214.886719 398.03125 215.152344 C 397.351562 215.738281 397.125 216.839844 397.367188 217.675781 C 398.554688 221.808594 399.664062 225.945312 401.132812 229.988281 C 401.910156 232.125 402.835938 234.261719 403.46875 236.445312 C 404.222656 239.058594 404.695312 241.789062 405.304688 244.441406 C 406.195312 248.3125 407.863281 252 409.226562 255.726562 C 410.824219 260.105469 412.457031 264.296875 413.378906 268.859375 C 413.945312 271.671875 414.445312 274.484375 414.917969 277.304688 C 412.480469 275.285156 410.054688 273.253906 407.640625 271.207031 C 404.621094 268.363281 401.597656 265.523438 398.558594 262.695312 C 395.417969 259.777344 392.933594 256.261719 390.011719 253.132812 C 386.652344 249.527344 383.105469 246.175781 379.902344 242.421875 C 376.832031 238.820312 373.625 235.417969 370.34375 232.023438 C 369.792969 231.320312 369.242188 230.621094 368.6875 229.914062 C 367.875 228.875 365.839844 228.929688 365.023438 229.914062 C 361.40625 234.261719 357.78125 238.582031 354.035156 242.820312 C 352.308594 244.773438 350.746094 246.644531 349.285156 248.800781 C 347.824219 250.964844 346.421875 253.191406 344.871094 255.296875 C 340.878906 259.707031 337.125 264.292969 333.398438 268.925781 C 330.308594 272.769531 327.648438 276.921875 324.679688 280.851562 C 323.390625 282.554688 322.105469 284.257812 320.816406 285.957031 C 320.347656 286.578125 319.878906 287.195312 319.410156 287.816406 C 319.378906 287.847656 319.347656 287.875 319.289062 287.9375 C 319.171875 288.054688 319.066406 288.183594 318.953125 288.300781 C 319.464844 285.992188 319.957031 283.675781 320.398438 281.34375 C 320.871094 278.859375 321.320312 276.480469 322.058594 274.070312 C 322.910156 271.296875 323.820312 268.535156 324.597656 265.738281 C 327.625 254.882812 329.910156 243.847656 333.441406 233.132812 C 335.570312 226.675781 337.824219 220.316406 340.210938 213.945312 C 340.597656 212.917969 339.960938 211.527344 339.019531 211.019531 C 334.761719 208.730469 330.515625 206.425781 326.207031 204.230469 C 323.925781 203.070312 321.671875 201.742188 319.300781 200.78125 C 316.46875 199.632812 313.617188 198.535156 310.773438 197.410156 C 310.394531 197.261719 310.011719 197.105469 309.628906 196.960938 C 309.597656 196.941406 309.578125 196.929688 309.527344 196.902344 C 308.253906 196.210938 306.921875 195.605469 305.621094 194.957031 C 303.589844 193.945312 301.582031 192.867188 299.507812 191.949219 C 294.644531 189.789062 289.777344 187.671875 284.964844 185.402344 C 282.667969 184.316406 280.421875 183.179688 278.023438 182.347656 C 277.890625 182.300781 277.753906 182.257812 277.621094 182.210938 C 277.644531 182.203125 277.664062 182.199219 277.6875 182.195312 C 278.144531 182.09375 278.761719 182.0625 279.183594 181.859375 C 279.191406 181.855469 279.191406 181.855469 279.195312 181.851562 C 279.230469 181.847656 279.261719 181.84375 279.292969 181.839844 C 281.015625 181.628906 282.738281 181.414062 284.460938 181.203125 C 289.433594 180.589844 294.453125 179.871094 299.457031 179.585938 C 305.390625 179.246094 311.316406 179.035156 317.246094 178.621094 C 319.734375 178.449219 322.171875 178.101562 324.644531 177.753906 C 326.332031 177.519531 328.019531 177.28125 329.707031 177.046875 C 329.761719 177.039062 329.8125 177.035156 329.859375 177.03125 C 329.851562 177.03125 329.847656 177.03125 329.839844 177.03125 C 329.851562 177.03125 329.863281 177.03125 329.871094 177.03125 C 330.101562 177.011719 330.257812 177.027344 330.324219 177.042969 C 330.722656 177.023438 331.152344 176.9375 331.515625 176.914062 C 337.894531 176.46875 344.171875 176.289062 350.570312 176.238281 C 351.625 176.230469 352.859375 175.445312 353.066406 174.335938 C 354.210938 168.203125 355.265625 162.160156 355.976562 155.964844 C 356.589844 150.640625 357.40625 145.15625 357.308594 139.804688 C 357.269531 137.816406 357.234375 135.832031 357.199219 133.84375 C 357.183594 132.976562 357.167969 132.113281 357.152344 131.246094 C 357.144531 130.964844 357.160156 130.671875 357.136719 130.390625 C 357.59375 129.214844 357.765625 127.78125 358.066406 126.585938 C 358.539062 124.699219 359.015625 122.8125 359.492188 120.925781 C 360.214844 118.050781 360.074219 114.898438 360.253906 111.953125 C 360.300781 111.128906 360.351562 110.308594 360.398438 109.488281 C 360.410156 109.3125 360.421875 109.136719 360.429688 108.957031 C 360.9375 107.835938 361 106.199219 361.253906 105.023438 C 361.910156 101.960938 362.410156 98.828125 363.335938 95.832031 C 363.640625 94.839844 363.949219 93.847656 364.257812 92.855469 C 365.140625 95.710938 366.003906 98.574219 366.835938 101.449219 C 367.546875 103.917969 368.269531 106.148438 369.351562 108.472656 C 370.175781 110.25 371 112.03125 371.828125 113.808594 C 372.085938 114.363281 372.332031 114.929688 372.605469 115.480469 C 372.617188 115.535156 372.625 115.578125 372.648438 115.667969 C 372.859375 116.453125 373.101562 117.222656 373.328125 117.996094 C 373.863281 120.453125 374.527344 122.9375 375.234375 125.296875 C 376.027344 127.929688 377.320312 130.488281 378.363281 133.035156 C 379.527344 135.886719 380.640625 138.785156 381.652344 141.714844 C 381.945312 142.613281 382.242188 143.507812 382.542969 144.402344 C 382.804688 145.230469 383.070312 146.058594 383.308594 146.894531 C 384.171875 149.914062 384.835938 153.089844 385.964844 156.019531 C 386.714844 157.957031 387.535156 159.871094 388.363281 161.785156 C 388.769531 163.066406 389.1875 164.339844 389.585938 165.632812 C 390.039062 167.109375 391.363281 167.597656 392.554688 167.382812 C 392.746094 167.375 392.941406 167.351562 393.144531 167.296875 C 394.363281 166.976562 395.496094 165.398438 394.953125 164.113281 C 394.429688 162.871094 393.90625 161.628906 393.386719 160.390625 C 392.089844 156.25 390.757812 152.136719 389.292969 148.039062 C 387.570312 143.230469 386.195312 138.277344 384.382812 133.503906 C 383.210938 130.410156 381.875 127.371094 380.742188 124.261719 C 379.949219 122.078125 379.316406 119.828125 378.652344 117.59375 C 378.554688 117.148438 378.453125 116.703125 378.347656 116.265625 C 377.738281 113.785156 376.8125 111.605469 375.808594 109.253906 C 375.078125 107.539062 374.347656 105.824219 373.617188 104.109375 C 373.589844 104.042969 373.558594 103.976562 373.53125 103.910156 C 373.53125 103.90625 373.535156 103.914062 373.535156 103.90625 C 373.492188 103.445312 373.253906 102.9375 373.125 102.496094 C 372.238281 99.46875 371.511719 96.335938 370.425781 93.375 C 369.496094 90.832031 368.472656 88.320312 367.464844 85.804688 C 367.253906 85.132812 367.050781 84.457031 366.835938 83.785156 C 366.421875 82.480469 365.378906 81.90625 364.328125 81.953125 C 363.222656 81.820312 362.078125 82.359375 361.648438 83.75 C 361.378906 84.625 361.109375 85.492188 360.839844 86.359375 C 360.050781 88.390625 359.261719 90.425781 358.472656 92.457031 C 357.597656 94.710938 357.371094 97.195312 356.933594 99.570312 C 356.476562 102.046875 356.011719 104.179688 355.140625 106.527344 C 354.230469 108.984375 353.25 111.425781 352.421875 113.910156 C 351.398438 116.984375 350.308594 120.078125 349.441406 123.195312 C 348.710938 125.824219 348.304688 128.574219 347.753906 131.242188 C 346.785156 135.925781 345.710938 140.597656 344.496094 145.222656 C 343.71875 148.171875 343.117188 151.238281 342.113281 154.121094 C 341.1875 156.773438 340.144531 159.390625 339.128906 162.015625 C 335.046875 163.078125 330.980469 164.183594 326.824219 164.914062 C 321.503906 165.84375 316.289062 166.925781 311.023438 168.125 C 306.851562 169.074219 302.625 169.765625 298.421875 170.5625 C 295.472656 171.117188 292.523438 171.683594 289.570312 172.246094 C 287.582031 172.625 285.773438 173.429688 283.878906 174.148438 C 279.714844 175.730469 275.539062 177.046875 271.296875 178.3125 C 270.027344 178.601562 268.757812 178.894531 267.488281 179.179688 C 264.832031 179.777344 265.222656 183.390625 267.488281 184.175781 C 267.734375 184.261719 267.984375 184.347656 268.234375 184.433594 C 275.246094 187.863281 282.25 191.410156 289.511719 194.285156 C 291.871094 195.21875 294.21875 196.195312 296.59375 197.089844 C 296.867188 197.304688 297.28125 197.441406 297.589844 197.597656 C 298.792969 198.214844 299.992188 198.832031 301.191406 199.445312 C 305.148438 201.472656 308.972656 203.636719 312.824219 205.863281 C 316.144531 207.785156 319.648438 209.355469 323.128906 210.964844 C 322.792969 213.441406 322.457031 215.921875 322.117188 218.402344 C 321.753906 221.078125 320.96875 223.707031 320.339844 226.332031 C 319.121094 231.449219 318.269531 236.621094 317.457031 241.816406 C 316.445312 248.304688 315.5625 254.757812 314.855469 261.289062 C 314.304688 266.382812 314.039062 271.507812 313.414062 276.59375 C 313.011719 279.875 312.445312 283.183594 312.226562 286.484375 C 312.019531 289.644531 311.957031 292.820312 311.847656 295.988281 C 311.777344 296.285156 311.714844 296.578125 311.644531 296.875 C 311.164062 298.863281 313.515625 301.234375 315.449219 299.800781 C 317.925781 297.964844 320.402344 296.128906 322.882812 294.289062 C 323.761719 293.640625 324.617188 293.070312 325.273438 292.179688 C 326.230469 290.882812 327.15625 289.566406 328.097656 288.257812 C 331.230469 283.914062 334.722656 279.726562 337.644531 275.246094 C 339.410156 272.546875 340.929688 269.65625 342.566406 266.875 C 343.90625 264.59375 345.773438 262.5625 347.390625 260.46875 C 347.925781 259.777344 348.433594 259.074219 348.945312 258.375 C 349.945312 257.125 350.914062 255.859375 351.867188 254.546875 C 352.960938 253.046875 354.050781 251.542969 355.140625 250.042969 C 355.328125 249.785156 356.195312 248.683594 355.308594 249.78125 C 355.578125 249.445312 355.84375 249.105469 356.113281 248.765625 C 359.597656 244.367188 363.171875 240.152344 366.882812 235.972656 C 369.035156 238.757812 371.191406 241.535156 373.59375 244.117188 C 377.238281 248.039062 380.949219 251.769531 384.820312 255.472656 C 387.933594 258.445312 390.148438 262.191406 393.125 265.28125 C 396.515625 268.800781 400.34375 272.003906 404.132812 275.097656 C 404.441406 275.347656 404.746094 275.605469 405.054688 275.859375 C 408.898438 279.464844 412.929688 282.75 417.027344 286.078125 C 418.523438 287.292969 421.765625 286.730469 421.453125 284.246094 C 421.046875 281.046875 420.640625 277.84375 420.238281 274.640625 C 419.90625 272.023438 419.207031 269.515625 418.570312 266.953125 C 417.269531 261.753906 416.46875 256.386719 415.046875 251.230469 C 414.144531 247.953125 412.925781 244.765625 411.980469 241.5 C 411.214844 238.859375 410.765625 236.089844 410.179688 233.402344 C 409.105469 228.457031 407.300781 223.722656 405.816406 218.890625 C 405.535156 217.964844 405.226562 217.039062 404.917969 216.109375 C 406.273438 214.980469 407.613281 213.835938 408.890625 212.636719 C 408.902344 212.625 408.90625 212.625 408.921875 212.613281 C 409.605469 212.15625 410.273438 211.664062 410.945312 211.191406 C 412.597656 210.027344 414.25 208.867188 415.902344 207.707031 C 420.496094 204.476562 424.847656 200.855469 429.253906 197.371094 C 430.425781 196.441406 431.617188 195.539062 432.769531 194.589844 C 432.773438 194.589844 432.773438 194.589844 432.773438 194.589844 C 432.964844 194.515625 433.167969 194.339844 433.339844 194.230469 C 434.082031 193.765625 434.824219 193.296875 435.5625 192.832031 C 438.0625 191.253906 440.609375 189.78125 442.902344 187.914062 C 445.191406 186.054688 447.453125 184.164062 449.769531 182.339844 C 452.183594 180.433594 454.574219 178.34375 457.121094 176.605469 C 457.007812 176.71875 458 176.152344 458.269531 175.996094 C 459.207031 175.457031 460.148438 174.921875 461.089844 174.382812 C 462.625 173.5 464.253906 172.695312 465.734375 171.71875 C 468.3125 170.019531 470.695312 167.917969 473.144531 166.035156 C 473.203125 165.992188 473.238281 165.933594 473.292969 165.882812 Z M 357.136719 130.375 C 357.136719 130.371094 357.136719 130.367188 357.136719 130.363281 C 357.089844 129.925781 357.253906 129.953125 357.136719 130.375 Z M 330.4375 169.519531 C 332.738281 169.117188 334.992188 168.421875 337.253906 167.84375 C 338.664062 167.480469 340.109375 167.183594 341.5 166.753906 C 342.9375 166.308594 343.402344 165.269531 343.886719 163.996094 C 344.988281 161.09375 346.21875 158.210938 347.195312 155.269531 C 348.027344 152.769531 348.5625 150.136719 349.230469 147.59375 C 350.25 143.710938 351.203125 139.800781 352.050781 135.875 C 352.054688 136.042969 352.0625 136.207031 352.0625 136.375 C 352.164062 141.835938 351.796875 147.273438 351.171875 152.707031 C 350.917969 154.917969 350.664062 157.125 350.410156 159.332031 C 350.308594 160.226562 350.199219 161.121094 350.101562 162.019531 C 350.09375 162.097656 350.089844 162.132812 350.085938 162.1875 C 350.074219 162.226562 350.070312 162.246094 350.054688 162.308594 C 349.429688 165.210938 348.933594 168.152344 348.410156 171.078125 C 343.589844 171.128906 338.808594 171.222656 333.988281 171.558594 C 331.503906 171.734375 329.070312 171.949219 326.601562 172.292969 C 324.707031 172.558594 322.8125 172.824219 320.917969 173.085938 C 320.398438 173.160156 319.878906 173.230469 319.359375 173.304688 C 319.296875 173.304688 319.199219 173.308594 319.019531 173.316406 C 315.398438 173.496094 311.773438 173.695312 308.152344 173.910156 C 315.570312 172.402344 322.972656 170.824219 330.4375 169.519531 Z M 320.898438 253.351562 C 320.898438 253.328125 320.898438 253.324219 320.902344 253.304688 C 321.015625 252.617188 321.113281 251.929688 321.21875 251.242188 C 321.53125 249.199219 321.84375 247.160156 322.160156 245.117188 C 322.925781 240.132812 323.585938 235.074219 324.753906 230.164062 C 325.515625 226.976562 326.488281 223.769531 327.011719 220.53125 C 327.515625 217.425781 327.882812 214.292969 328.292969 211.171875 C 330.367188 212.265625 332.433594 213.371094 334.5 214.476562 C 330.871094 224.167969 327.257812 233.988281 324.777344 244.03125 C 323.257812 250.1875 321.726562 256.328125 320.105469 262.457031 C 320.003906 262.835938 319.894531 263.214844 319.789062 263.589844 C 320.140625 260.175781 320.578125 256.769531 320.898438 253.351562 Z M 428.140625 191.6875 C 425.84375 193.507812 423.558594 195.339844 421.246094 197.136719 C 419.765625 198.289062 418.277344 199.433594 416.792969 200.582031 C 416.082031 201.132812 415.375 201.683594 414.664062 202.230469 C 414.425781 202.417969 414.1875 202.601562 413.949219 202.785156 C 413.507812 203.125 413.769531 202.792969 414.167969 202.613281 C 412.632812 203.308594 411.164062 204.726562 409.785156 205.695312 C 408.425781 206.652344 407.019531 207.5625 405.707031 208.582031 C 404.875 209.226562 404.0625 209.902344 403.257812 210.589844 C 403.171875 210.234375 403.066406 209.882812 402.992188 209.523438 C 402.425781 206.851562 401.984375 204.144531 401.519531 201.445312 C 403.632812 200.269531 405.75 199.089844 407.863281 197.914062 C 408.046875 197.808594 408.253906 197.710938 408.453125 197.605469 C 408.261719 197.671875 408.285156 197.554688 408.542969 197.507812 C 408.585938 197.5 408.632812 197.480469 408.679688 197.46875 C 408.753906 197.421875 408.839844 197.382812 408.90625 197.332031 C 408.824219 197.398438 408.777344 197.417969 408.710938 197.460938 C 408.949219 197.394531 409.191406 197.300781 409.417969 197.226562 C 411.09375 196.695312 412.769531 196.160156 414.441406 195.625 C 419.28125 194.082031 424.246094 192.484375 428.847656 190.335938 C 430.109375 189.746094 431.375 189.15625 432.636719 188.558594 C 431.097656 189.539062 429.582031 190.546875 428.140625 191.6875 Z M 428.140625 191.6875 " fill-opacity="1" fill-rule="nonzero"/><g clip-path="url(#3b11960d24)"><path fill="#090000" d="M 746.335938 404.839844 C 742.945312 404.105469 739.507812 403.492188 736.148438 402.632812 C 734.1875 402.128906 732.257812 401.355469 730.347656 400.574219 C 730.054688 400.035156 729.570312 399.582031 728.828125 399.363281 C 724.3125 398.015625 719.828125 396.539062 715.238281 395.476562 C 709.648438 394.179688 704.199219 392.742188 698.695312 391.121094 C 694.335938 389.835938 689.75 389.683594 685.363281 388.550781 C 682.324219 387.765625 679.332031 386.652344 676.335938 385.710938 C 674.363281 385.089844 672.367188 385.070312 670.316406 384.976562 C 664.691406 383.671875 658.992188 382.566406 653.371094 381.289062 C 651.511719 380.863281 650.269531 382.324219 650.152344 383.785156 C 649.683594 385.078125 650.09375 386.675781 651.8125 387.09375 C 656.644531 388.257812 661.347656 389.667969 666.3125 389.941406 C 667.269531 389.992188 668.222656 390.046875 669.179688 390.097656 C 669.875 390.25 670.570312 390.410156 671.265625 390.5625 C 677.066406 391.8125 682.75 393.820312 688.480469 395.382812 C 694.128906 396.925781 699.851562 398.078125 705.535156 399.46875 C 708.554688 400.207031 711.566406 401.007812 714.601562 401.667969 C 715.941406 401.960938 717.304688 402.214844 718.667969 402.476562 C 718.195312 402.648438 717.71875 402.8125 717.246094 402.984375 C 714.152344 404.117188 711.160156 405.578125 708.140625 406.890625 C 707.601562 407.125 707.0625 407.355469 706.527344 407.59375 C 706.324219 407.621094 706.117188 407.734375 705.921875 407.792969 C 703.898438 408.410156 701.890625 409.113281 699.878906 409.773438 C 697.039062 410.703125 694.269531 411.71875 691.480469 412.789062 C 688.683594 413.859375 685.898438 414.929688 683.128906 416.066406 C 680.242188 417.253906 677.402344 418.679688 674.355469 419.378906 C 671.265625 420.089844 667.914062 420.515625 664.9375 421.605469 C 661.640625 422.8125 658.5 424.449219 655.199219 425.652344 C 651.792969 426.894531 648.226562 427.6875 644.824219 428.929688 C 642.507812 429.773438 640.234375 430.75 637.960938 431.71875 C 636.820312 432.082031 635.6875 432.445312 634.5625 432.769531 C 633.425781 433.09375 632.710938 434.113281 632.660156 435.265625 C 632.570312 437.363281 632.480469 439.457031 632.390625 441.554688 C 632.3125 443.378906 632.015625 445.328125 632.285156 447.144531 C 632.628906 449.4375 633.03125 451.726562 633.402344 454.019531 C 633.574219 455.085938 633.746094 456.152344 633.921875 457.222656 C 633.964844 457.492188 633.988281 457.777344 634.054688 458.046875 C 634.011719 457.867188 633.988281 457.738281 633.972656 457.644531 C 633.976562 457.71875 633.980469 457.804688 633.976562 457.933594 C 633.683594 465.8125 634.5 473.683594 634.765625 481.546875 C 634.90625 485.632812 634.996094 489.707031 635.339844 493.777344 C 635.683594 497.847656 636.011719 501.808594 635.996094 505.882812 C 635.964844 514.078125 636.5 522.226562 636.835938 530.414062 C 636.875 531.332031 636.949219 532.246094 637 533.164062 C 632.953125 527.214844 628.738281 521.394531 624.453125 515.597656 C 619.738281 509.21875 615.53125 502.484375 611.113281 495.898438 C 608.996094 492.75 606.363281 489.714844 604.699219 486.300781 C 602.828125 482.453125 601.089844 478.597656 598.796875 474.984375 C 597.492188 472.933594 596.019531 470.914062 594.855469 468.78125 C 593.917969 467.058594 593.253906 465.125 592.476562 463.324219 C 590.734375 459.296875 588.878906 455.339844 587.003906 451.371094 C 586.898438 451.148438 586.792969 450.925781 586.6875 450.703125 C 586.484375 450.242188 586.273438 449.785156 586.074219 449.328125 C 585.515625 448.050781 583.617188 447.746094 582.527344 448.398438 C 575.617188 452.535156 568.28125 456.335938 561.8125 461.136719 C 558.148438 463.851562 554.582031 466.582031 551.082031 469.5 C 550.046875 470.363281 549.015625 471.222656 547.980469 472.085938 C 547.804688 472.230469 547.625 472.378906 547.449219 472.53125 C 547.417969 472.546875 547.398438 472.558594 547.355469 472.582031 C 545.121094 473.925781 542.980469 475.46875 540.804688 476.90625 C 537.214844 479.269531 534.015625 482.175781 530.746094 484.957031 C 530.707031 484.988281 530.628906 485.058594 530.542969 485.132812 C 530.40625 485.238281 530.167969 485.429688 530.09375 485.484375 C 529.078125 486.246094 528.066406 487.007812 527.050781 487.769531 C 525.261719 489.113281 523.453125 490.429688 521.691406 491.804688 C 519.871094 493.222656 518.070312 494.65625 516.261719 496.085938 C 515.394531 496.765625 514.519531 497.441406 513.65625 498.136719 C 513.386719 498.332031 513.125 498.539062 512.855469 498.742188 C 509.421875 501.335938 505.996094 503.9375 502.527344 506.492188 C 501.207031 507.464844 499.90625 508.503906 498.570312 509.476562 C 498.628906 509.351562 498.683594 509.226562 498.742188 509.101562 C 500.445312 505.539062 502.386719 502.015625 503.703125 498.289062 C 504.585938 495.796875 505.464844 493.304688 506.347656 490.8125 C 506.46875 490.472656 506.933594 489.253906 506.753906 489.652344 C 507.027344 489.015625 507.304688 488.378906 507.578125 487.746094 C 510.765625 480.402344 513.902344 473.042969 516.664062 465.527344 C 517.648438 462.851562 518.617188 460.171875 519.585938 457.492188 C 521.472656 455.238281 523.515625 453.058594 524.863281 450.507812 C 526.84375 446.75 528.683594 442.957031 531.074219 439.445312 C 533.5625 435.792969 536.058594 432.140625 538.5625 428.5 C 541.109375 424.792969 543.273438 421.015625 545.476562 417.089844 C 545.832031 416.457031 546.1875 415.828125 546.539062 415.195312 C 547.234375 413.957031 546.820312 412.394531 545.609375 411.652344 C 540.726562 408.65625 535.941406 405.675781 531.273438 402.363281 C 527.035156 399.351562 522.710938 396.476562 518.367188 393.617188 C 513.246094 390.246094 508.140625 386.878906 503.078125 383.429688 C 501.082031 382.070312 499.164062 380.648438 497.234375 379.1875 C 496.175781 378.386719 495.117188 377.582031 494.054688 376.78125 C 497.289062 377.15625 500.613281 377.066406 503.851562 377.320312 C 507.308594 377.59375 510.757812 378.105469 514.203125 378.507812 C 521.109375 379.308594 528.011719 380.101562 534.929688 380.808594 C 541.828125 381.511719 548.75 381.929688 555.652344 382.652344 C 559.367188 383.039062 563.183594 382.722656 566.914062 382.773438 C 570.535156 382.820312 574.15625 383.003906 577.773438 383.125 C 578.695312 383.15625 579.542969 382.605469 580.011719 381.84375 C 582.050781 378.527344 584.328125 375.277344 586.121094 371.820312 C 588.109375 367.992188 590.03125 364.128906 592.011719 360.296875 C 594.117188 356.230469 596.222656 352.25 598.585938 348.328125 C 599.707031 346.46875 601.054688 344.621094 601.910156 342.617188 C 602.882812 340.324219 603.835938 338.019531 604.800781 335.71875 C 605.191406 334.792969 605.578125 333.863281 605.96875 332.933594 C 605.980469 332.917969 605.980469 332.917969 605.996094 332.898438 C 606.21875 332.582031 606.367188 332.171875 606.542969 331.828125 C 607.847656 329.273438 609.152344 326.714844 610.460938 324.160156 C 612.285156 320.582031 614.363281 317.113281 616.082031 313.488281 C 617.042969 311.457031 617.8125 309.3125 618.671875 307.234375 C 619.199219 305.957031 619.726562 304.675781 620.257812 303.394531 C 620.292969 303.304688 620.332031 303.214844 620.371094 303.121094 C 620.414062 303.0625 620.503906 302.917969 620.632812 302.71875 C 622.507812 299.8125 624.277344 296.820312 625.964844 293.792969 C 626.445312 299.074219 627.125 304.296875 628 309.582031 C 628.003906 309.613281 628.007812 309.621094 628.011719 309.648438 C 628.011719 309.691406 628.007812 309.71875 628.007812 309.792969 C 628.003906 310.828125 628.097656 311.875 628.144531 312.910156 C 628.246094 315.203125 628.339844 317.496094 628.449219 319.789062 C 628.625 323.363281 628.917969 326.929688 629.160156 330.496094 C 629.640625 337.613281 630.261719 344.707031 630.945312 351.808594 C 631.316406 355.683594 631.367188 359.585938 631.640625 363.472656 C 631.902344 367.214844 632.472656 370.953125 632.898438 374.679688 C 633.054688 376.082031 633.972656 377.253906 635.488281 377.269531 C 636.765625 377.285156 638.238281 376.070312 638.078125 374.679688 C 637.667969 371.078125 637.152344 367.472656 636.84375 363.859375 C 636.535156 360.242188 636.511719 356.597656 636.238281 352.976562 C 635.6875 345.761719 634.914062 338.566406 634.398438 331.34375 C 633.886719 324.164062 633.667969 316.972656 633.1875 309.792969 C 632.941406 306.070312 632.085938 302.3125 631.488281 298.632812 C 631.472656 298.554688 631.460938 298.476562 631.449219 298.398438 C 631.449219 298.386719 631.449219 298.386719 631.449219 298.375 C 631.46875 297.421875 631.308594 296.421875 631.242188 295.46875 C 631.070312 293.125 630.898438 290.785156 630.730469 288.441406 C 630.652344 287.355469 630.589844 286.269531 630.523438 285.179688 C 631.519531 283.160156 632.46875 281.121094 633.355469 279.011719 C 633.929688 277.640625 634.507812 276.269531 635.082031 274.898438 C 635.242188 274.519531 635.402344 274.140625 635.5625 273.757812 C 635.5625 273.761719 635.558594 273.769531 635.566406 273.761719 C 635.765625 273.464844 635.941406 273.128906 636.121094 272.808594 C 636.15625 273.433594 636.199219 274.054688 636.207031 274.675781 C 636.238281 277.484375 636.273438 280.289062 636.304688 283.097656 C 636.328125 284.789062 636.71875 286.4375 637.023438 288.097656 C 637.433594 290.363281 637.609375 292.855469 638.269531 295.074219 C 638.269531 295.074219 638.269531 295.074219 638.269531 295.078125 C 638.269531 295.601562 638.320312 296.132812 638.34375 296.660156 C 638.414062 298.101562 638.484375 299.546875 638.554688 300.988281 C 638.765625 305.421875 639.152344 309.820312 639.539062 314.242188 C 639.898438 318.347656 639.429688 322.492188 639.324219 326.609375 C 639.222656 330.34375 639.253906 334.132812 639.386719 337.867188 C 639.6875 346.207031 640.992188 354.472656 641.207031 362.804688 C 641.328125 367.328125 641.273438 371.601562 640.929688 376.109375 C 640.589844 380.519531 640.597656 384.84375 640.625 389.269531 C 640.632812 390.023438 640.636719 390.78125 640.640625 391.535156 C 640.660156 394.867188 645.84375 394.875 645.820312 391.535156 C 645.796875 387.722656 645.519531 383.832031 645.808594 380.03125 C 646.132812 375.769531 646.617188 371.527344 646.503906 367.253906 C 646.390625 362.804688 646.21875 358.46875 645.769531 354.046875 C 645.316406 349.582031 645.003906 345.136719 644.734375 340.65625 C 644.480469 336.417969 644.523438 332.179688 644.496094 327.933594 C 644.46875 324.03125 644.996094 320.113281 644.890625 316.210938 C 644.789062 312.410156 644.113281 308.621094 643.917969 304.820312 C 643.695312 300.453125 643.710938 296.070312 642.929688 291.761719 C 642.457031 289.148438 642.027344 286.523438 641.511719 283.917969 C 641.507812 283.945312 641.503906 283.972656 641.496094 283.996094 C 641.507812 283.964844 641.5 283.921875 641.503906 283.886719 C 641.5 283.859375 641.496094 283.835938 641.488281 283.808594 C 641.378906 283.257812 641.484375 283.449219 641.511719 283.710938 C 641.511719 283.5 641.488281 283.273438 641.488281 283.097656 C 641.472656 281.734375 641.457031 280.375 641.4375 279.015625 C 641.386719 274.5 641.054688 270.171875 640.589844 265.675781 C 640.511719 264.886719 640.429688 264.097656 640.347656 263.308594 C 640.113281 261.023438 636.757812 259.445312 635.519531 262 C 633.746094 265.664062 631.863281 269.285156 630.289062 273.035156 C 630.167969 273.328125 630.042969 273.621094 629.921875 273.914062 C 629.785156 271.0625 629.648438 268.207031 629.488281 265.359375 C 629.359375 263.035156 625.800781 261.523438 624.660156 264.050781 C 621.605469 270.835938 618.355469 277.492188 615.191406 284.222656 C 613.53125 287.753906 611.953125 291.324219 610.199219 294.808594 C 608.367188 298.4375 606.46875 301.988281 605.015625 305.785156 C 604.125 308.109375 603.191406 310.425781 602.34375 312.765625 C 602.371094 312.710938 602.394531 312.667969 602.425781 312.601562 C 602.367188 312.714844 602.320312 312.832031 602.265625 312.953125 C 602.285156 312.914062 602.300781 312.871094 602.316406 312.835938 C 602.324219 312.8125 602.332031 312.789062 602.34375 312.765625 C 601.988281 313.4375 602.140625 313.226562 602.261719 312.964844 C 602.214844 313.066406 602.167969 313.167969 602.121094 313.265625 C 601.613281 314.359375 601.117188 315.457031 600.617188 316.554688 C 598.886719 320.328125 597.089844 324.003906 595.183594 327.691406 C 591.542969 334.722656 588.246094 341.921875 584.941406 349.117188 C 584.242188 350.640625 583.523438 352.152344 582.804688 353.664062 C 582.140625 355.0625 581.476562 356.457031 580.808594 357.855469 C 580.511719 358.484375 579.960938 359.28125 579.753906 359.996094 C 579.898438 359.675781 580.128906 359.65625 579.703125 360.183594 C 579.699219 360.1875 579.695312 360.195312 579.691406 360.199219 C 579.691406 360.207031 579.6875 360.214844 579.683594 360.21875 C 579.6875 360.214844 579.6875 360.207031 579.691406 360.203125 C 579.363281 360.605469 579.039062 361.015625 578.714844 361.421875 C 577.800781 362.558594 576.890625 363.699219 575.980469 364.835938 C 574.792969 366.320312 573.605469 367.804688 572.417969 369.289062 C 569.226562 369.496094 566.035156 369.714844 562.839844 369.902344 C 559.6875 370.089844 556.449219 369.714844 553.296875 369.582031 C 550.246094 369.457031 547.246094 368.972656 544.21875 368.570312 C 543.285156 368.449219 542.355469 368.324219 541.421875 368.203125 C 541.273438 368.183594 541.125 368.164062 540.976562 368.144531 C 540.96875 368.140625 540.972656 368.140625 540.957031 368.132812 C 539.375 367.527344 537.394531 367.417969 535.734375 367.085938 C 529.652344 365.867188 523.414062 364.691406 517.210938 364.390625 C 514 364.234375 510.753906 364.199219 507.550781 363.898438 C 505.5625 363.710938 503.578125 363.460938 501.59375 363.242188 C 500.585938 363.132812 499.574219 363.023438 498.566406 362.910156 C 498.28125 362.878906 497.992188 362.847656 497.707031 362.816406 C 497.71875 362.824219 497.730469 362.828125 497.738281 362.835938 C 497.726562 362.828125 497.703125 362.824219 497.691406 362.816406 C 497.660156 362.8125 497.628906 362.808594 497.59375 362.804688 C 496.976562 362.742188 497.171875 362.652344 497.453125 362.714844 C 496.980469 362.554688 496.246094 362.523438 495.875 362.441406 C 494.652344 362.1875 493.433594 361.929688 492.214844 361.671875 C 490.488281 361.308594 488.765625 360.867188 487.027344 360.578125 C 483.292969 359.957031 479.347656 360.046875 475.570312 359.808594 C 473.320312 359.664062 472.160156 362.734375 473.738281 364.230469 C 475.472656 365.871094 477.179688 367.515625 478.882812 369.171875 C 476.660156 369.011719 474.425781 368.910156 472.226562 368.734375 C 469.386719 368.507812 469.09375 372.199219 470.921875 373.5625 C 473.128906 375.203125 475.335938 376.847656 477.542969 378.492188 C 478.09375 378.90625 478.644531 379.316406 479.199219 379.726562 C 479.316406 379.816406 479.421875 379.917969 479.511719 380.007812 C 479.476562 379.964844 479.449219 379.929688 479.40625 379.871094 C 479.988281 380.660156 480.992188 381.328125 481.707031 381.988281 C 483.75 383.871094 485.722656 385.914062 487.914062 387.625 C 490.109375 389.335938 492.328125 391.015625 494.535156 392.714844 C 496.054688 393.878906 497.5625 394.894531 499.183594 395.914062 C 500.699219 396.871094 502.21875 397.828125 503.734375 398.78125 C 504.226562 399.089844 504.707031 399.410156 505.203125 399.707031 C 505.445312 399.851562 505.542969 399.910156 505.585938 399.9375 C 509.453125 403.050781 513.382812 406.042969 517.128906 409.300781 C 521.078125 412.742188 524.90625 416.285156 528.730469 419.859375 C 528.054688 422.851562 527.46875 425.925781 526.476562 428.796875 C 525.71875 431 524.679688 433.144531 523.789062 435.296875 C 523.414062 436.199219 523.039062 437.101562 522.667969 438.007812 C 522.671875 438.003906 522.671875 438 522.675781 437.996094 C 522.671875 438 522.667969 438.011719 522.664062 438.015625 C 522.652344 438.042969 522.640625 438.070312 522.628906 438.097656 C 522.558594 438.269531 522.492188 438.367188 522.441406 438.421875 C 522.410156 438.496094 522.378906 438.570312 522.347656 438.628906 C 520.480469 442.058594 518.390625 445.574219 517.070312 449.253906 C 516.371094 451.199219 515.664062 453.144531 514.964844 455.089844 C 512.421875 458.425781 510.847656 462.277344 508.875 465.972656 C 507.125 469.253906 504.484375 472.050781 502.507812 475.203125 C 498.132812 482.183594 494.53125 489.648438 490.265625 496.703125 C 489.082031 498.664062 487.726562 500.59375 486.683594 502.632812 C 485.671875 504.609375 484.941406 506.777344 484.085938 508.824219 C 483.582031 510.023438 483.078125 511.226562 482.574219 512.425781 C 482.515625 512.566406 482.359375 512.820312 482.3125 512.902344 C 482.277344 512.953125 482.246094 513 482.226562 513.03125 C 480.824219 515.367188 479.511719 517.761719 478.15625 520.125 C 477.8125 520.722656 477.46875 521.320312 477.125 521.921875 C 475.804688 524.222656 478.410156 526.667969 480.671875 525.464844 C 482.800781 524.328125 484.980469 523.21875 487.164062 522.089844 C 486.460938 523.632812 485.753906 525.171875 485.035156 526.703125 C 483.890625 529.144531 486.179688 531.3125 488.582031 530.25 C 495.800781 527.058594 503.109375 523.941406 509.402344 519.089844 C 516.265625 513.796875 523.476562 509.042969 530.339844 503.753906 C 533.648438 501.203125 536.835938 498.496094 540.011719 495.78125 C 540.074219 495.730469 540.152344 495.671875 540.230469 495.617188 C 540.160156 495.660156 540.09375 495.703125 539.992188 495.761719 C 540.226562 495.621094 540.445312 495.441406 540.667969 495.285156 C 541.707031 494.546875 542.746094 493.808594 543.789062 493.070312 C 545.511719 491.847656 547.425781 490.722656 549.019531 489.320312 C 551.886719 486.800781 554.296875 483.761719 557.144531 481.210938 C 560.226562 478.449219 563.324219 475.710938 566.339844 472.878906 C 569.519531 469.898438 572.648438 466.898438 575.726562 463.8125 C 578.375 461.164062 580.769531 458.390625 583.171875 455.542969 C 583.507812 456.316406 583.847656 457.09375 584.1875 457.867188 C 584.648438 458.929688 585.113281 459.988281 585.574219 461.050781 C 585.667969 461.265625 585.761719 461.480469 585.855469 461.695312 C 585.867188 461.738281 585.878906 461.773438 585.898438 461.847656 C 587.078125 465.617188 588.3125 469.578125 589.996094 473.160156 C 593.339844 480.246094 597.179688 487.144531 600.289062 494.328125 C 603.535156 501.820312 606.921875 509.160156 611.257812 516.09375 C 612.378906 517.886719 613.671875 519.65625 614.65625 521.53125 C 615.539062 523.207031 616.175781 525.066406 616.921875 526.804688 C 617.625 528.441406 618.210938 530.21875 619.070312 531.78125 C 620.136719 533.722656 621.582031 535.53125 622.8125 537.371094 C 625.390625 541.214844 627.914062 545.09375 630.441406 548.96875 C 632.769531 552.542969 635.941406 555.621094 638.738281 558.824219 C 640.25 560.550781 643.167969 559.136719 643.164062 556.992188 C 643.15625 554.605469 643.207031 552.199219 643.199219 549.804688 C 643.25 549.863281 643.304688 549.925781 643.355469 549.988281 C 643.421875 550.070312 643.492188 550.15625 643.558594 550.246094 C 643.570312 550.238281 643.648438 550.3125 643.828125 550.550781 C 643.839844 550.5625 643.847656 550.578125 643.859375 550.589844 C 643.867188 550.597656 643.871094 550.605469 643.878906 550.613281 C 643.875 550.605469 643.871094 550.601562 643.867188 550.597656 C 645.480469 552.71875 647.097656 554.839844 648.714844 556.957031 C 649.140625 557.515625 649.566406 558.074219 649.992188 558.628906 C 651.414062 560.5 654.90625 560.152344 654.820312 557.324219 C 654.699219 553.457031 654.847656 549.492188 654.328125 545.660156 C 653.984375 543.128906 653.640625 540.597656 653.300781 538.066406 C 653.234375 537.582031 653.167969 537.097656 653.101562 536.613281 C 653.0625 536.320312 653.105469 536.046875 653.128906 536.097656 C 653.109375 535.425781 653.003906 534.726562 652.964844 534.078125 C 652.707031 529.648438 652.375 525.457031 651.589844 521.09375 C 650.835938 516.902344 650.164062 512.710938 649.519531 508.496094 C 648.898438 504.449219 648.101562 500.433594 647.34375 496.40625 C 647.308594 496.210938 647.28125 495.960938 647.230469 495.738281 C 647.269531 496 647.261719 496.285156 647.214844 495.734375 C 647.210938 495.699219 647.207031 495.660156 647.203125 495.621094 C 647.191406 495.585938 647.1875 495.542969 647.175781 495.515625 C 647.183594 495.53125 647.191406 495.558594 647.199219 495.582031 C 647.09375 494.425781 646.957031 493.269531 646.839844 492.113281 C 646.625 490.046875 646.425781 487.980469 646.199219 485.914062 C 645.78125 482.125 645.5625 478.199219 644.78125 474.464844 C 643.960938 470.53125 642.984375 466.625 642.121094 462.699219 C 641.054688 457.84375 640.074219 453.015625 639.207031 448.121094 C 639.046875 447.238281 638.992188 446.199219 638.746094 445.300781 C 638.773438 445.476562 638.726562 445.421875 638.699219 445.132812 C 638.675781 445.058594 638.660156 444.976562 638.632812 444.902344 C 638.667969 444.996094 638.675781 445.050781 638.695312 445.117188 C 638.691406 445.058594 638.683594 445.023438 638.679688 444.945312 C 638.664062 444.34375 638.613281 443.742188 638.578125 443.144531 C 638.46875 441.15625 638.355469 439.167969 638.242188 437.175781 C 638.589844 437.03125 638.933594 436.886719 639.28125 436.738281 C 641.542969 436.027344 643.820312 435.308594 646.113281 434.859375 C 649.625 434.171875 653.242188 433.910156 656.78125 433.382812 C 664.191406 432.28125 671.550781 431.105469 678.742188 428.953125 C 682.410156 427.855469 686.050781 426.742188 689.765625 425.835938 C 691.050781 425.519531 692.335938 425.207031 693.621094 424.894531 C 694.402344 424.703125 695.699219 424.625 696.40625 424.210938 C 696.410156 424.210938 696.40625 424.210938 696.410156 424.207031 C 696.617188 424.183594 696.828125 424.160156 697.035156 424.136719 C 698.308594 423.996094 699.585938 423.851562 700.859375 423.710938 C 702.84375 423.488281 704.957031 423.457031 706.90625 423.019531 C 708.738281 422.605469 710.570312 421.777344 712.34375 421.179688 C 716.003906 419.941406 719.597656 419.011719 723.363281 418.121094 C 725.011719 417.730469 726.601562 417.417969 728.144531 416.734375 C 730.652344 415.625 733.15625 414.496094 735.660156 413.378906 C 735.953125 413.25 736.246094 413.121094 736.535156 412.988281 C 736.554688 412.984375 736.558594 412.984375 736.585938 412.980469 C 737.667969 412.75 738.746094 412.285156 739.792969 411.945312 C 741.976562 411.242188 744.15625 410.539062 746.335938 409.835938 C 748.628906 409.097656 748.96875 405.410156 746.335938 404.839844 Z M 484.65625 365.5625 C 485.027344 365.585938 485.402344 365.617188 485.773438 365.632812 C 485.738281 365.617188 485.703125 365.601562 485.667969 365.578125 C 485.703125 365.601562 485.761719 365.613281 485.804688 365.636719 C 486.359375 365.664062 486.277344 365.769531 486.011719 365.71875 C 486.492188 365.859375 487.132812 365.886719 487.53125 365.972656 C 488.753906 366.230469 489.972656 366.488281 491.191406 366.742188 C 492.917969 367.105469 494.640625 367.542969 496.378906 367.835938 C 503.75 369.078125 511.1875 369.042969 518.609375 369.636719 C 522.179688 369.925781 525.757812 370.570312 529.3125 371.050781 C 529.816406 371.117188 529.558594 371.117188 529.277344 371.070312 C 529.417969 371.097656 529.558594 371.117188 529.691406 371.144531 C 530.714844 371.367188 531.742188 371.558594 532.769531 371.761719 C 534.960938 372.203125 537.152344 372.679688 539.351562 373.082031 C 546.53125 374.40625 553.738281 374.78125 561.015625 375.082031 C 564.601562 375.230469 568.253906 374.738281 571.832031 374.507812 C 573.40625 374.40625 574.808594 374.441406 575.917969 373.15625 C 577.371094 371.472656 578.707031 369.667969 580.097656 367.933594 C 581.289062 366.441406 582.492188 364.964844 583.671875 363.464844 C 584.648438 362.226562 585.203125 360.644531 585.875 359.226562 C 587.414062 355.992188 588.949219 352.753906 590.441406 349.496094 C 593.453125 342.933594 596.503906 336.394531 599.824219 329.980469 C 603.203125 323.460938 606.304688 316.84375 608.929688 309.984375 C 609.597656 308.234375 610.355469 306.496094 610.945312 304.71875 C 610.476562 306.136719 611.289062 304.132812 611.464844 303.785156 C 612.027344 302.667969 612.589844 301.554688 613.152344 300.4375 C 614.792969 297.183594 616.367188 293.914062 617.90625 290.609375 C 620.183594 285.726562 622.570312 280.898438 624.867188 276.027344 C 625.003906 278.734375 625.15625 281.4375 625.304688 284.144531 C 625.183594 284.382812 625.0625 284.621094 624.933594 284.859375 C 622.757812 288.933594 620.519531 292.890625 618.128906 296.84375 C 617.171875 298.429688 616.109375 299.96875 615.398438 301.683594 C 614.332031 304.257812 613.269531 306.835938 612.207031 309.410156 C 612.003906 309.902344 611.800781 310.394531 611.597656 310.886719 C 611.605469 310.878906 611.605469 310.878906 611.609375 310.871094 C 611.605469 310.875 611.601562 310.882812 611.597656 310.886719 C 611.597656 310.890625 611.597656 310.894531 611.59375 310.894531 C 611.410156 311.347656 611.285156 311.40625 611.378906 311.21875 C 611.007812 311.800781 610.734375 312.527344 610.429688 313.105469 C 609.152344 315.519531 607.867188 317.925781 606.601562 320.34375 C 604.746094 323.890625 602.703125 327.441406 601.148438 331.132812 C 600.183594 333.421875 599.226562 335.71875 598.265625 338.007812 C 597.878906 338.9375 597.488281 339.867188 597.101562 340.792969 C 597.085938 340.804688 597.078125 340.804688 597.058594 340.824219 C 596.769531 341.097656 596.574219 341.628906 596.367188 341.96875 C 594.050781 345.8125 591.71875 349.601562 589.660156 353.585938 C 587.550781 357.660156 585.453125 361.742188 583.371094 365.828125 C 581.335938 369.820312 579.023438 373.566406 576.671875 377.386719 C 576.566406 377.554688 576.464844 377.722656 576.359375 377.890625 C 573.3125 377.78125 570.261719 377.644531 567.210938 377.59375 C 563.707031 377.53125 560.175781 377.75 556.675781 377.570312 C 553.195312 377.394531 549.71875 376.804688 546.246094 376.484375 C 542.78125 376.164062 539.300781 376.007812 535.835938 375.710938 C 521.96875 374.53125 508.222656 372.117188 494.300781 371.601562 C 494.242188 371.601562 494.175781 371.589844 494.113281 371.585938 C 494.257812 371.566406 494.152344 371.507812 493.695312 371.550781 C 493.730469 371.558594 493.757812 371.558594 493.792969 371.566406 C 493.71875 371.5625 493.640625 371.554688 493.570312 371.5625 C 493.617188 371.554688 493.652344 371.554688 493.695312 371.550781 C 493.695312 371.550781 493.691406 371.550781 493.691406 371.550781 C 492.566406 371.316406 491.429688 371.125 490.300781 370.914062 C 489.324219 370.730469 488.34375 370.535156 487.363281 370.34375 C 485.730469 368.691406 484.082031 367.042969 482.417969 365.421875 C 483.164062 365.46875 483.910156 365.515625 484.65625 365.5625 Z M 509.886719 396.773438 C 506.382812 394.011719 502.289062 392.101562 498.714844 389.441406 C 496.226562 387.589844 493.792969 385.65625 491.332031 383.765625 C 491.222656 383.683594 491.117188 383.601562 491.007812 383.519531 C 490.917969 383.425781 490.597656 383.132812 490.453125 383.003906 C 489.277344 381.921875 488.097656 380.835938 486.921875 379.75 C 484.945312 377.933594 482.898438 376.242188 480.8125 374.601562 C 481.421875 374.65625 482.316406 374.882812 482.953125 374.789062 C 483.183594 374.835938 483.414062 374.875 483.644531 374.917969 C 484.050781 374.992188 484.457031 375.070312 484.863281 375.148438 C 485.296875 375.59375 485.746094 376.023438 486.179688 376.476562 C 489.84375 380.304688 494.09375 383.492188 498.441406 386.527344 C 507.59375 392.910156 517.175781 398.679688 526.273438 405.140625 C 531.066406 408.542969 535.894531 411.703125 540.859375 414.796875 C 539.453125 417.425781 538.066406 420.097656 536.390625 422.535156 C 534.839844 424.792969 533.292969 427.054688 531.742188 429.3125 C 532.765625 426.191406 533.308594 422.832031 534.085938 419.671875 C 534.304688 418.789062 534.101562 417.789062 533.421875 417.148438 C 525.8125 410.023438 518.082031 403.222656 509.886719 396.773438 Z M 486.253906 516.597656 C 486.683594 515.777344 487.089844 514.949219 487.445312 514.105469 C 488.46875 511.664062 489.492188 509.21875 490.515625 506.773438 C 490.71875 506.292969 490.921875 505.808594 491.125 505.328125 C 491.183594 505.1875 491.339844 504.933594 491.40625 504.8125 C 491.441406 504.765625 491.472656 504.722656 491.492188 504.691406 C 491.820312 504.183594 492.121094 503.652344 492.433594 503.132812 C 496.457031 496.480469 500.246094 489.707031 504.074219 482.945312 C 502.675781 486.214844 501.34375 489.460938 500.152344 492.828125 C 499.699219 494.105469 499.25 495.382812 498.796875 496.660156 C 498.671875 497.015625 498.535156 497.371094 498.417969 497.730469 C 498.386719 497.824219 498.363281 497.878906 498.339844 497.941406 C 498.375 497.867188 498.40625 497.800781 498.46875 497.683594 C 498.417969 497.777344 498.378906 497.878906 498.328125 497.972656 C 498.257812 498.144531 498.230469 498.191406 498.265625 498.101562 C 497.351562 499.855469 496.558594 501.6875 495.710938 503.464844 C 494.03125 506.984375 492.417969 510.527344 490.808594 514.078125 C 489.296875 514.933594 487.777344 515.769531 486.253906 516.597656 Z M 545.550781 485.492188 C 545.511719 485.515625 545.476562 485.542969 545.441406 485.570312 C 545.605469 485.414062 546.074219 485.136719 545.550781 485.492188 Z M 566.003906 466.097656 C 559.746094 471.964844 553.328125 477.613281 547.289062 483.707031 C 546.730469 484.269531 545.84375 484.898438 545.421875 485.582031 C 545.066406 485.828125 544.71875 486.082031 544.367188 486.328125 C 542.210938 487.863281 540.042969 489.382812 537.890625 490.925781 C 536.472656 491.945312 535.164062 493.113281 533.824219 494.238281 C 532.722656 495.164062 531.617188 496.09375 530.511719 497.019531 C 530.132812 497.335938 529.753906 497.652344 529.375 497.972656 C 529.019531 498.277344 528.773438 498.488281 529.160156 498.179688 C 526.324219 500.480469 523.417969 502.8125 520.394531 504.855469 C 516.984375 507.167969 513.535156 509.410156 510.273438 511.929688 C 508.347656 513.414062 506.472656 515.035156 504.464844 516.40625 C 502.910156 517.46875 501.164062 518.3125 499.53125 519.242188 C 497.203125 520.570312 494.859375 521.730469 492.472656 522.84375 C 493.1875 521.253906 493.90625 519.660156 494.621094 518.070312 C 497.023438 516.6875 499.359375 515.222656 501.558594 513.605469 C 508.753906 508.304688 515.882812 502.929688 522.902344 497.398438 C 523.628906 496.828125 524.367188 496.269531 525.078125 495.6875 C 525.089844 495.675781 525.089844 495.675781 525.105469 495.667969 C 525.480469 495.390625 525.851562 495.105469 526.222656 494.828125 C 528.382812 493.207031 530.546875 491.582031 532.710938 489.960938 C 534.109375 488.910156 535.433594 487.761719 536.773438 486.636719 C 537.90625 485.683594 539.039062 484.730469 540.171875 483.78125 C 540.574219 483.441406 540.976562 483.109375 541.375 482.769531 C 541.445312 482.710938 541.507812 482.664062 541.566406 482.617188 C 541.527344 482.640625 541.492188 482.660156 541.441406 482.683594 C 541.5 482.652344 541.558594 482.613281 541.621094 482.582031 C 541.792969 482.460938 541.90625 482.410156 541.890625 482.433594 C 543.683594 481.480469 545.378906 480.085938 547.050781 478.980469 C 548.5 478.027344 549.980469 477.125 551.316406 476.023438 C 553.429688 474.277344 555.527344 472.511719 557.632812 470.753906 C 557.972656 470.46875 558.320312 470.191406 558.65625 469.902344 C 558.683594 469.878906 558.691406 469.867188 558.714844 469.847656 C 559.433594 469.351562 560.121094 468.800781 560.820312 468.285156 C 564.085938 465.863281 567.269531 463.636719 570.695312 461.53125 C 569.152344 463.074219 567.597656 464.605469 566.003906 466.097656 Z M 639.867188 476.109375 C 639.875 476.175781 639.882812 476.242188 639.890625 476.308594 C 639.84375 476.171875 639.785156 475.359375 639.867188 476.109375 Z M 639.695312 475.445312 C 639.742188 475.652344 639.761719 476.132812 639.890625 476.320312 C 640.167969 478.84375 640.484375 481.367188 640.78125 483.894531 C 641.242188 487.835938 641.59375 491.789062 642.035156 495.738281 C 642.453125 499.5 643.4375 503.203125 644.074219 506.9375 C 644.699219 510.621094 645.132812 514.339844 645.792969 518.015625 C 646.269531 520.667969 646.746094 523.320312 647.222656 525.972656 C 647.269531 526.234375 647.304688 526.511719 647.359375 526.777344 C 647.3125 527.769531 647.480469 528.820312 647.539062 529.8125 C 647.832031 534.929688 648.363281 539.882812 649.050781 544.964844 C 649.136719 545.59375 649.222656 546.21875 649.308594 546.847656 C 649.3125 546.882812 649.3125 546.910156 649.316406 546.941406 C 649.316406 546.9375 649.316406 546.933594 649.316406 546.929688 C 649.316406 546.933594 649.316406 546.941406 649.316406 546.945312 C 649.351562 547.328125 649.285156 547.515625 649.257812 547.457031 C 649.226562 548.046875 649.308594 548.710938 649.367188 549.304688 C 648.667969 548.40625 647.988281 547.492188 647.261719 546.613281 C 645.769531 544.808594 644.25 543.023438 642.738281 541.230469 C 642.515625 538.859375 642.269531 536.488281 642.171875 534.109375 C 641.839844 526.125 641.132812 518.089844 641.160156 510.097656 C 641.175781 506.035156 641.214844 502.050781 640.875 498.007812 C 640.53125 493.890625 640.230469 489.824219 640.089844 485.699219 C 639.972656 482.203125 639.804688 478.710938 639.644531 475.21875 C 639.660156 475.292969 639.675781 475.367188 639.695312 475.445312 Z M 635.890625 547.710938 C 635.78125 547.582031 635.667969 547.457031 635.554688 547.324219 C 635.664062 547.472656 635.644531 547.480469 635.511719 547.273438 C 635.445312 547.199219 635.382812 547.117188 635.3125 547.046875 C 635.394531 547.128906 635.453125 547.195312 635.503906 547.257812 C 635.476562 547.21875 635.460938 547.199219 635.425781 547.140625 C 633.453125 543.785156 631.175781 540.5625 629.007812 537.324219 C 626.832031 534.074219 624.289062 530.933594 622.742188 527.328125 C 621.152344 523.625 619.757812 519.921875 617.625 516.507812 C 615.371094 512.902344 613.253906 509.261719 611.28125 505.542969 C 613.621094 509.105469 615.96875 512.660156 618.441406 516.128906 C 623.195312 522.808594 628.28125 529.242188 632.792969 536.09375 C 634.082031 538.050781 635.3125 540.074219 636.675781 541.984375 C 637.007812 542.453125 637.359375 542.90625 637.722656 543.351562 C 637.761719 543.800781 637.792969 544.25 637.832031 544.699219 C 637.980469 546.503906 638.015625 548.324219 638.019531 550.144531 C 637.3125 549.332031 636.601562 548.523438 635.890625 547.710938 Z M 668.644531 426.039062 C 669.972656 425.695312 671.3125 425.390625 672.707031 425.070312 C 672.996094 425.003906 673.292969 424.941406 673.589844 424.882812 C 671.945312 425.292969 670.296875 425.679688 668.644531 426.039062 Z M 734.289062 408.351562 C 732.335938 409.199219 730.398438 410.085938 728.453125 410.957031 C 727.480469 411.390625 726.503906 411.820312 725.53125 412.261719 C 725.484375 412.28125 725.433594 412.300781 725.386719 412.324219 C 725.25 412.355469 725.046875 412.410156 724.941406 412.425781 C 721.398438 413.039062 717.675781 413.914062 714.261719 415.070312 C 711.886719 415.871094 709.511719 416.675781 707.132812 417.480469 C 706.851562 417.578125 705.496094 417.96875 705.671875 418 C 705.101562 418.074219 704.519531 418.121094 703.953125 418.183594 C 700 418.625 696.105469 418.953125 692.246094 419.898438 C 688.46875 420.820312 684.738281 421.753906 681.019531 422.863281 C 680.199219 423.109375 679.375 423.324219 678.554688 423.558594 C 679.449219 423.195312 680.332031 422.777344 681.210938 422.414062 C 684.058594 421.246094 686.898438 420.066406 689.773438 418.964844 C 692.664062 417.859375 695.53125 416.644531 698.472656 415.679688 C 701.847656 414.574219 705.386719 413.679688 708.652344 412.28125 C 710.46875 411.503906 712.277344 410.703125 714.089844 409.910156 C 715.171875 409.441406 716.25 408.972656 717.328125 408.5 C 717.570312 408.394531 717.8125 408.289062 718.058594 408.183594 C 721.234375 407.363281 724.359375 406.035156 727.464844 404.867188 C 729.765625 405.785156 732.027344 406.839844 734.394531 407.546875 C 734.78125 407.660156 735.179688 407.75 735.570312 407.855469 C 735.144531 408.019531 734.707031 408.167969 734.289062 408.351562 Z M 734.289062 408.351562 " fill-opacity="1" fill-rule="nonzero"/></g><path fill="#090000" d="M 431.550781 413.542969 C 424.34375 413.109375 417.214844 412.503906 410.03125 411.796875 C 402.988281 411.105469 395.878906 410.359375 388.804688 410.109375 C 385.300781 409.984375 381.710938 410.488281 378.207031 410.664062 C 374.691406 410.839844 371.15625 410.792969 367.636719 410.847656 C 360.609375 410.953125 353.613281 410.925781 346.585938 411.167969 C 339.5 411.417969 332.414062 411.71875 325.328125 412.027344 C 323.636719 409.050781 321.957031 406.070312 320.226562 403.113281 C 317.957031 399.226562 315.949219 395.269531 312.964844 391.890625 C 311.230469 389.925781 309.597656 387.695312 307.683594 385.898438 C 307.507812 385.605469 307.289062 385.324219 307.097656 385.046875 C 306.261719 383.816406 305.421875 382.589844 304.585938 381.359375 C 301.941406 377.484375 299.082031 374.027344 296.023438 370.457031 C 290.664062 364.203125 285.574219 357.695312 280.105469 351.53125 C 277.460938 348.550781 274.605469 345.757812 271.957031 342.773438 C 269.023438 339.464844 266.144531 336.125 263.03125 332.980469 C 260.453125 330.375 257.925781 327.746094 255.425781 325.078125 C 252.078125 321.148438 248.734375 317.21875 245.523438 313.171875 C 245.429688 313.042969 245.335938 312.917969 245.238281 312.792969 C 244.804688 312.210938 244.367188 311.628906 243.929688 311.046875 C 243.753906 310.808594 243.539062 310.609375 243.300781 310.445312 C 242.746094 309.898438 242.042969 309.746094 241.351562 309.894531 C 240.117188 309.953125 239.003906 310.746094 239.101562 312.351562 C 239.101562 312.359375 239.101562 312.363281 239.105469 312.371094 C 239.101562 312.402344 239.085938 312.429688 239.085938 312.460938 C 239.078125 316.609375 238.863281 320.800781 239.214844 324.9375 C 239.371094 326.804688 239.578125 328.679688 239.738281 330.558594 C 239.769531 334.378906 239.742188 338.207031 239.613281 342.054688 C 239.597656 342.679688 239.582031 343.304688 239.578125 343.929688 C 239.441406 348.835938 239.429688 353.746094 239.394531 358.65625 C 239.105469 361.019531 238.699219 363.382812 238.621094 365.75 C 238.484375 369.84375 238.621094 373.957031 238.621094 378.058594 C 238.414062 380.78125 238.175781 383.5 237.929688 386.226562 C 237.554688 390.335938 236.464844 394.550781 236.660156 398.675781 C 236.800781 401.730469 237.109375 404.828125 237.089844 407.886719 C 237.082031 408.78125 236.992188 409.683594 236.878906 410.589844 C 236.519531 413.050781 236.054688 415.515625 235.960938 417.976562 C 235.617188 421.734375 235.441406 425.492188 235.210938 429.269531 C 235.058594 431.78125 234.878906 434.289062 234.710938 436.796875 C 234.65625 437.625 234.480469 438.570312 234.484375 439.441406 C 234.503906 439.363281 234.539062 439.542969 234.496094 439.90625 C 234.5 439.925781 234.496094 439.949219 234.5 439.96875 C 234.496094 439.953125 234.496094 439.941406 234.496094 439.925781 C 234.492188 439.953125 234.492188 439.980469 234.484375 440.011719 C 234.378906 440.71875 234.277344 441.425781 234.171875 442.132812 C 233.871094 444.175781 233.632812 446.195312 233.390625 448.21875 C 225.898438 450.457031 218.410156 452.746094 210.824219 454.648438 C 206.1875 455.816406 201.769531 457.046875 197.261719 458.625 C 195.5625 459.21875 193.863281 459.957031 192.113281 460.367188 C 189.453125 460.988281 186.746094 461.457031 184.066406 462 C 179.828125 462.863281 175.835938 464.585938 171.757812 466.019531 C 168.078125 467.316406 164.28125 468.308594 160.554688 469.460938 C 156.609375 470.683594 152.703125 472.058594 148.714844 473.128906 C 144.304688 474.3125 139.988281 475.324219 135.828125 477.199219 C 133.457031 478.265625 130.964844 479.210938 128.664062 480.421875 C 128.308594 480.566406 127.953125 480.714844 127.597656 480.859375 C 126.175781 481.445312 124.753906 482.03125 123.332031 482.613281 C 119.007812 484.390625 114.773438 486.296875 110.523438 488.242188 C 109.808594 488.566406 109.097656 488.890625 108.386719 489.21875 C 106.691406 489.992188 106.691406 492.917969 108.386719 493.691406 C 111.445312 495.085938 114.484375 496.558594 117.574219 497.886719 C 114.613281 499.117188 111.664062 500.378906 108.753906 501.746094 C 108.003906 502.097656 107.253906 502.453125 106.503906 502.804688 C 104.679688 503.660156 104.953125 506.347656 106.503906 507.277344 C 108.207031 508.304688 109.914062 509.332031 111.617188 510.355469 C 113.113281 511.253906 114.605469 512.371094 116.242188 512.992188 C 119.667969 514.296875 123.15625 515.480469 126.628906 516.644531 C 133.804688 519.039062 140.984375 521.070312 148.285156 523.035156 C 152.003906 524.039062 155.671875 525.101562 159.457031 525.800781 C 163.414062 526.53125 167.28125 527.269531 171.167969 528.285156 C 178.710938 530.257812 186.058594 532.753906 193.660156 534.496094 C 201.40625 536.273438 209.113281 538.222656 216.835938 540.101562 C 218.222656 541.398438 220.011719 540.675781 220.777344 539.378906 C 220.785156 539.367188 220.789062 539.355469 220.796875 539.34375 C 220.832031 539.28125 220.871094 539.222656 220.902344 539.160156 C 221.652344 537.824219 221.371094 535.898438 219.476562 535.417969 C 218.332031 534.253906 217.1875 533.09375 216.039062 531.929688 C 214.878906 530.75 213.703125 529.128906 212.242188 528.300781 C 210.171875 527.128906 207.785156 526.328125 205.605469 525.363281 C 204.171875 524.726562 202.746094 524.058594 201.28125 523.488281 C 197.699219 522.097656 194.058594 520.847656 190.519531 519.359375 C 186.9375 517.851562 183.402344 516.082031 179.648438 515.058594 C 175.824219 514.011719 172 513.089844 168.3125 511.644531 C 164.609375 510.191406 160.90625 508.738281 157.195312 507.304688 C 153.398438 505.839844 149.769531 504.539062 145.84375 503.492188 C 144.617188 503.164062 143.394531 502.835938 142.167969 502.507812 C 141.6875 502.378906 141.207031 502.234375 140.722656 502.121094 C 140.523438 502.078125 140.078125 501.925781 140.039062 501.929688 C 138.292969 501.1875 136.574219 500.359375 134.847656 499.578125 C 133.632812 499.03125 132.40625 498.519531 131.1875 497.996094 C 131.859375 497.726562 132.535156 497.464844 133.207031 497.191406 C 137.445312 495.46875 141.691406 493.761719 145.945312 492.074219 C 149.441406 490.6875 153.09375 489.097656 156.742188 488.199219 C 159.398438 487.542969 162.105469 487.039062 164.78125 486.460938 C 166.546875 486.078125 168.066406 485.410156 169.726562 484.699219 C 171.835938 483.800781 173.933594 482.773438 176.085938 481.964844 C 176.085938 481.976562 176.230469 481.945312 176.523438 481.878906 C 177.101562 481.746094 177.675781 481.566406 178.246094 481.410156 C 179.789062 480.992188 181.332031 480.574219 182.871094 480.152344 C 190.789062 478.003906 198.359375 474.488281 206.386719 472.722656 C 209.144531 472.113281 211.902344 471.507812 214.65625 470.902344 C 216.335938 470.53125 217.878906 469.789062 219.46875 469.144531 C 221.445312 468.34375 223.410156 467.414062 225.433594 466.746094 C 227.945312 465.914062 230.542969 465.296875 233.089844 464.574219 C 233.882812 464.347656 234.675781 464.121094 235.46875 463.894531 C 236.632812 463.566406 237.292969 462.554688 237.371094 461.398438 C 237.558594 458.710938 237.746094 456.023438 237.933594 453.335938 C 237.976562 452.714844 238.019531 452.09375 238.0625 451.476562 C 238.273438 451.089844 238.425781 450.65625 238.488281 450.175781 C 238.800781 447.742188 239.117188 445.3125 239.429688 442.878906 C 239.566406 441.828125 239.730469 440.769531 239.839844 439.714844 C 239.90625 439.234375 239.972656 438.753906 240.039062 438.273438 C 240.421875 435.511719 240.804688 432.753906 241.183594 429.992188 C 241.46875 427.917969 241.253906 425.765625 241.210938 423.675781 C 241.171875 421.757812 240.984375 419.789062 241.160156 417.878906 C 241.429688 415.003906 241.867188 412.136719 242.21875 409.273438 C 242.710938 405.273438 242.632812 401.21875 242.894531 397.199219 C 243.175781 392.917969 243.730469 388.660156 243.765625 384.367188 C 243.78125 382.613281 243.773438 380.855469 243.78125 379.097656 C 243.875 377.875 243.984375 376.648438 244.046875 375.425781 C 244.328125 369.902344 244.4375 364.390625 244.515625 358.875 C 244.628906 357.757812 244.738281 356.632812 244.835938 355.5 C 245.089844 352.585938 244.789062 349.628906 244.683594 346.6875 C 244.695312 345.992188 244.703125 345.296875 244.714844 344.601562 C 244.804688 340.167969 245.101562 335.746094 245.054688 331.3125 C 245.015625 327.8125 244.898438 324.335938 244.742188 320.863281 C 245.457031 321.78125 246.1875 322.6875 246.957031 323.550781 C 248.867188 325.703125 250.824219 327.824219 252.804688 329.914062 C 254.140625 331.46875 255.464844 333.03125 256.761719 334.632812 C 257.664062 335.746094 258.558594 336.863281 259.464844 337.972656 C 259.519531 338.039062 259.660156 338.226562 259.761719 338.359375 C 259.859375 338.507812 259.964844 338.667969 260.003906 338.722656 C 261.609375 341.070312 263.21875 343.414062 264.828125 345.761719 C 267.019531 348.964844 269.523438 351.945312 271.777344 355.105469 C 274.335938 358.691406 276.710938 362.398438 279.386719 365.90625 C 282.316406 369.746094 285.039062 373.558594 287.675781 377.609375 C 290.160156 381.425781 292.390625 385.390625 294.820312 389.246094 C 296.84375 392.445312 299.753906 395.238281 301.433594 398.628906 C 302.695312 401.171875 303.890625 403.753906 305.117188 406.3125 C 305.933594 408.019531 307.175781 409.390625 308.351562 410.871094 C 309.335938 412.109375 310.320312 413.347656 311.304688 414.585938 C 311.632812 415.003906 311.964844 415.421875 312.296875 415.835938 C 312.847656 416.527344 312.289062 416.042969 312.269531 415.808594 C 312.351562 416.675781 313.308594 417.90625 313.695312 418.679688 C 314.398438 420.097656 315.101562 421.515625 315.808594 422.933594 C 316.023438 423.367188 316.238281 423.800781 316.453125 424.234375 C 316.566406 424.882812 316.902344 425.484375 317.453125 425.871094 C 318.078125 426.457031 318.898438 426.554688 319.65625 426.3125 C 323.027344 426.320312 326.394531 426.324219 329.761719 426.335938 C 333.351562 426.351562 337.015625 426.621094 340.59375 426.402344 C 344.246094 426.179688 347.917969 425.421875 351.546875 424.925781 C 351.542969 424.929688 351.53125 424.933594 351.535156 424.933594 C 351.664062 425.027344 352.125 424.976562 352.28125 424.988281 C 353.40625 425.074219 354.527344 425.15625 355.652344 425.238281 C 357.800781 425.398438 359.953125 425.609375 362.105469 425.714844 C 369.207031 426.0625 376.355469 425.683594 383.460938 425.589844 C 386.96875 425.546875 390.527344 426.019531 394.027344 426.257812 C 394.261719 426.273438 394.640625 426.371094 394.871094 426.3125 C 394.875 426.3125 394.871094 426.3125 394.871094 426.3125 C 395.59375 426.410156 396.316406 426.507812 397.042969 426.609375 C 399.402344 426.933594 401.765625 427.253906 404.128906 427.578125 C 407.503906 428.042969 410.953125 427.738281 414.371094 427.679688 C 413.984375 428.003906 413.597656 428.324219 413.21875 428.65625 C 407.9375 433.296875 403.074219 438.546875 398.121094 443.53125 C 395.664062 446.003906 393.378906 448.65625 391.023438 451.222656 C 388.691406 453.773438 386.09375 456.09375 383.605469 458.492188 C 378.660156 463.253906 373.832031 468.136719 369.027344 473.039062 C 364.8125 477.335938 360.882812 481.875 357.082031 486.527344 C 355.625 488.171875 354.21875 489.886719 352.820312 491.519531 C 351.527344 493.023438 351.898438 494.414062 352.351562 496.046875 C 352.605469 497.214844 352.953125 498.390625 353.175781 499.46875 C 353.496094 501.035156 353.699219 502.695312 354.15625 504.226562 C 354.546875 505.542969 355.125 506.839844 355.683594 508.121094 C 356.324219 510.113281 357 512.09375 357.636719 514.082031 C 358.773438 517.636719 360.851562 520.914062 362.554688 524.222656 C 362.765625 524.625 362.960938 525.070312 363.191406 525.484375 C 363.113281 525.285156 363.167969 525.265625 363.277344 525.617188 C 363.28125 525.636719 363.289062 525.652344 363.292969 525.667969 C 363.332031 525.730469 363.359375 525.800781 363.398438 525.859375 C 363.355469 525.792969 363.335938 525.746094 363.300781 525.691406 C 363.417969 526.0625 363.558594 526.425781 363.683594 526.789062 C 364.492188 529.105469 365.300781 531.417969 366.105469 533.734375 C 367.332031 537.25 368.949219 540.609375 370.457031 544.011719 C 371.871094 547.199219 373.238281 550.402344 374.609375 553.605469 C 374.992188 554.496094 375.375 555.390625 375.757812 556.28125 C 375.769531 556.3125 375.792969 556.367188 375.816406 556.425781 C 375.867188 556.570312 375.921875 556.730469 375.945312 556.789062 C 376.742188 558.976562 377.578125 561.152344 378.394531 563.335938 C 380.105469 567.902344 381.988281 572.394531 383.984375 576.835938 C 382.195312 575.371094 380.390625 573.921875 378.554688 572.519531 C 375.1875 569.945312 371.871094 567.425781 368.332031 565.097656 C 367.183594 564.34375 366.035156 563.585938 364.886719 562.832031 C 364.511719 562.585938 364.144531 562.324219 363.761719 562.09375 C 363.730469 562.074219 363.71875 562.070312 363.691406 562.054688 C 362.035156 560.472656 360.085938 559.101562 358.316406 557.652344 C 352.082031 552.53125 344.785156 548.886719 338.082031 544.429688 C 335.070312 542.429688 332.234375 540.15625 329.238281 538.132812 C 325.914062 535.886719 322.554688 533.691406 319.246094 531.425781 C 315.121094 528.601562 311.027344 525.964844 306.710938 523.441406 C 305.832031 522.925781 304.855469 522.125 303.886719 521.789062 C 304.390625 521.964844 304.476562 522.261719 303.894531 521.796875 C 303.425781 521.421875 302.953125 521.050781 302.484375 520.675781 C 300.488281 519.09375 298.496094 517.511719 296.5 515.925781 C 295.222656 514.914062 293.34375 514.875 292.433594 516.449219 C 287.5 524.992188 282.296875 533.351562 277.148438 541.765625 C 275 545.277344 273.792969 549.296875 271.71875 552.839844 C 270.203125 555.433594 268.554688 557.957031 266.972656 560.511719 C 265.894531 562.253906 265.210938 564.242188 264.402344 566.121094 C 262.40625 570.746094 260.273438 575.292969 258.015625 579.804688 C 256.167969 583.5 253.589844 586.808594 251.769531 590.527344 C 249.441406 595.273438 247.078125 599.945312 244.550781 604.585938 C 243.628906 606.28125 242.746094 607.941406 241.953125 609.695312 C 241.257812 611.230469 240.5625 612.765625 239.871094 614.296875 C 239.589844 614.917969 238.457031 616.554688 238.53125 617.253906 C 238.503906 616.957031 239.0625 616.546875 238.53125 617.257812 C 238.507812 617.285156 238.496094 617.304688 238.472656 617.339844 C 238.050781 617.875 237.632812 618.414062 237.214844 618.949219 C 236.167969 620.296875 235.117188 621.644531 234.066406 622.992188 C 233.417969 623.828125 232.582031 624.667969 232.050781 625.585938 C 231.542969 626.457031 231.257812 627.566406 230.894531 628.496094 C 230.277344 630.085938 229.660156 631.671875 229.042969 633.257812 C 228.90625 633.605469 228.773438 633.957031 228.636719 634.308594 C 227.953125 635.40625 227.269531 636.507812 226.582031 637.605469 C 226.546875 637.105469 226.511719 636.601562 226.476562 636.101562 C 226.296875 633.503906 226.460938 630.917969 226.535156 628.3125 C 226.636719 624.925781 226.457031 621.578125 226.292969 618.21875 C 226.511719 616.164062 226.738281 614.082031 226.65625 612.066406 C 226.582031 610.316406 226.371094 608.570312 226.152344 606.824219 C 226.195312 605.132812 226.238281 603.4375 226.226562 601.742188 C 226.214844 599.742188 226 597.730469 225.789062 595.722656 C 225.859375 594.847656 225.929688 593.972656 225.972656 593.113281 C 226.160156 589.515625 225.554688 585.996094 225.105469 582.453125 C 225.09375 580.871094 225.085938 579.289062 225.085938 577.710938 C 225.089844 574.433594 225.320312 571.070312 225.046875 567.804688 C 224.851562 565.441406 224.570312 563.082031 224.285156 560.722656 C 224.265625 559.539062 224.238281 558.355469 224.222656 557.167969 C 224.199219 555.640625 223.097656 554.820312 221.914062 554.691406 C 221.714844 554.640625 221.503906 554.605469 221.277344 554.601562 C 219.996094 554.589844 218.53125 555.804688 218.6875 557.191406 C 218.824219 558.441406 218.964844 559.6875 219.101562 560.933594 C 219.179688 565.628906 219.265625 570.320312 219.417969 575.011719 C 219.492188 577.285156 219.632812 579.460938 219.886719 581.699219 C 219.886719 584.746094 219.929688 587.792969 220.152344 590.8125 C 220.277344 592.464844 220.449219 594.117188 220.613281 595.773438 C 220.480469 597.554688 220.355469 599.335938 220.375 601.113281 C 220.402344 603.285156 220.703125 605.488281 220.984375 607.671875 C 220.957031 608.480469 220.9375 609.289062 220.925781 610.09375 C 220.890625 612.46875 221.03125 614.835938 221.179688 617.203125 C 220.949219 619.945312 220.644531 622.691406 220.753906 625.445312 C 221.019531 632.28125 221.433594 639.078125 221.914062 645.902344 C 222.09375 648.460938 225.300781 649.429688 226.742188 647.210938 C 228.820312 644 231.101562 640.90625 232.792969 637.496094 C 235.5 633.167969 238.191406 628.835938 240.796875 624.445312 C 245.261719 616.917969 250.21875 609.601562 255.339844 602.503906 C 257.882812 598.980469 260.675781 595.664062 262.90625 591.933594 C 265.457031 587.671875 268.054688 583.589844 270.890625 579.519531 C 273.492188 575.785156 276.132812 571.960938 278.328125 567.976562 C 278.367188 567.902344 278.394531 567.851562 278.414062 567.808594 C 278.59375 567.585938 278.773438 567.359375 278.953125 567.136719 C 279.886719 565.964844 280.820312 564.789062 281.753906 563.617188 C 282.980469 562.074219 284.457031 560.558594 285.394531 558.820312 C 287.640625 554.648438 289.546875 550.476562 292.191406 546.542969 C 294.867188 542.570312 297.203125 538.585938 299.519531 534.40625 C 301.722656 536.195312 303.929688 538.003906 306.25 539.625 C 309.578125 541.949219 312.980469 544.1875 316.394531 546.390625 C 320.054688 548.75 323.703125 551.109375 327.300781 553.558594 C 328.480469 554.363281 329.660156 555.164062 330.839844 555.96875 C 331.222656 556.226562 331.597656 556.507812 331.988281 556.75 C 332.03125 556.777344 332.050781 556.785156 332.078125 556.800781 C 333.910156 558.324219 335.820312 559.757812 337.6875 561.234375 C 341.105469 563.933594 344.5625 566.582031 348.011719 569.242188 C 349.261719 570.207031 350.636719 570.957031 351.996094 571.765625 C 353.265625 572.523438 354.539062 573.28125 355.808594 574.039062 C 356.335938 574.351562 356.960938 574.863281 357.566406 575.148438 C 357.394531 575.035156 357.5 574.996094 357.855469 575.269531 C 357.875 575.273438 357.894531 575.289062 357.914062 575.292969 C 357.890625 575.289062 357.882812 575.277344 357.855469 575.269531 C 357.878906 575.289062 357.886719 575.289062 357.914062 575.308594 C 358.339844 575.65625 358.769531 576.003906 359.199219 576.351562 C 360.34375 577.277344 361.488281 578.203125 362.628906 579.128906 C 363.984375 580.222656 365.3125 581.359375 366.730469 582.371094 C 368.917969 583.933594 371.109375 585.5 373.296875 587.066406 C 373.65625 587.320312 374.007812 587.585938 374.375 587.835938 C 374.460938 587.894531 374.519531 587.933594 374.558594 587.957031 C 375.253906 588.492188 375.945312 589.03125 376.640625 589.566406 C 380.144531 592.28125 383.5625 595.007812 386.925781 597.894531 C 390.277344 600.761719 393.328125 603.804688 396.4375 606.941406 C 396.949219 607.453125 397.457031 607.964844 397.964844 608.476562 C 399.652344 610.179688 403.335938 608.449219 402.292969 605.957031 C 400.320312 601.234375 398.433594 596.433594 396.433594 591.695312 C 397.046875 591.121094 397.347656 590.277344 396.957031 589.304688 C 394.261719 582.621094 391.550781 575.976562 388.519531 569.4375 C 388.515625 569.429688 388.515625 569.429688 388.511719 569.421875 C 388.492188 569.359375 388.46875 569.292969 388.429688 569.179688 C 388.09375 568.21875 387.730469 567.265625 387.378906 566.308594 C 386.636719 564.289062 385.921875 562.257812 385.15625 560.25 C 383.886719 556.90625 382.265625 553.667969 380.804688 550.40625 C 379.414062 547.296875 377.742188 544.296875 376.199219 541.261719 C 374.65625 538.234375 373.355469 535.074219 371.957031 531.980469 C 369.15625 525.78125 366.496094 519.574219 363.519531 513.457031 C 363.335938 513.074219 362.503906 511.179688 363.03125 512.53125 C 362.753906 511.824219 362.46875 511.125 362.1875 510.421875 C 361.765625 509.371094 361.335938 508.324219 360.910156 507.277344 C 360.652344 506.492188 360.394531 505.710938 360.144531 504.925781 C 359.179688 501.914062 358.40625 498.84375 357.628906 495.777344 C 357.546875 495.300781 357.46875 494.824219 357.382812 494.355469 C 358.148438 493.402344 358.914062 492.453125 359.679688 491.507812 C 360.859375 490.152344 362.046875 488.8125 363.28125 487.523438 C 365.53125 485.167969 368.335938 483.207031 370.832031 481.113281 C 375.574219 477.132812 380.035156 472.957031 384.210938 468.394531 C 386.3125 466.097656 388.304688 464.074219 390.679688 462.078125 C 393.082031 460.054688 395.511719 458.089844 397.777344 455.917969 C 402.574219 451.316406 407.382812 446.722656 412.53125 442.5 C 415.367188 440.175781 418.429688 438.109375 421.21875 435.726562 C 424.042969 433.320312 426.6875 430.667969 429.410156 428.148438 C 431.21875 426.472656 429.640625 423.957031 427.578125 423.726562 C 427.433594 423.710938 427.289062 423.6875 427.144531 423.671875 C 429.238281 421.785156 431.300781 419.863281 433.378906 417.964844 C 435.144531 416.359375 433.660156 413.667969 431.550781 413.542969 Z M 139.988281 507.289062 C 143.773438 508.300781 147.621094 509.140625 151.277344 510.550781 C 158.667969 513.402344 165.980469 516.691406 173.625 518.78125 C 175.746094 519.363281 177.9375 519.832031 180.023438 520.53125 C 181.597656 521.0625 183.125 521.820312 184.652344 522.464844 C 188.351562 524.023438 192.050781 525.503906 195.804688 526.929688 C 197.113281 527.425781 198.421875 527.933594 199.734375 528.421875 C 199.949219 528.5 200.164062 528.609375 200.386719 528.667969 C 200.328125 528.652344 200.296875 528.644531 200.25 528.632812 C 200.316406 528.65625 200.378906 528.679688 200.433594 528.703125 C 203.050781 529.875 205.679688 531.027344 208.300781 532.1875 C 208.625 532.332031 209.109375 532.65625 209.484375 532.730469 C 209.539062 532.820312 209.601562 532.910156 209.671875 533 C 205.917969 532.066406 202.160156 531.144531 198.394531 530.269531 C 194.769531 529.429688 191.046875 528.792969 187.496094 527.675781 C 183.875 526.535156 180.277344 525.308594 176.601562 524.347656 C 172.878906 523.375 169.195312 522.347656 165.410156 521.648438 C 161.570312 520.941406 157.820312 520.238281 154.058594 519.226562 C 146.539062 517.199219 139.011719 515.292969 131.621094 512.84375 C 127.34375 511.425781 123.101562 509.929688 118.851562 508.433594 C 118.535156 508.320312 118.214844 508.1875 117.890625 508.089844 C 117.886719 508.085938 117.886719 508.082031 117.878906 508.078125 C 117.113281 507.363281 115.890625 506.878906 114.996094 506.34375 C 114.429688 506 113.859375 505.65625 113.289062 505.316406 C 114.078125 504.945312 114.871094 504.574219 115.660156 504.199219 C 116.464844 503.820312 117.308594 503.476562 118.101562 503.058594 C 117.855469 503.164062 117.683594 503.207031 118.101562 503.054688 C 118.164062 503.023438 118.230469 502.996094 118.292969 502.964844 C 118.230469 502.996094 118.164062 503.027344 118.101562 503.054688 C 118.132812 503.042969 118.152344 503.035156 118.191406 503.023438 C 118.726562 502.828125 119.261719 502.621094 119.796875 502.417969 C 121.320312 501.84375 122.839844 501.257812 124.355469 500.675781 C 124.726562 500.824219 125.097656 500.976562 125.46875 501.128906 C 126.378906 501.496094 127.285156 501.871094 128.195312 502.238281 C 128.160156 502.21875 128.125 502.203125 128.09375 502.1875 C 128.15625 502.21875 128.222656 502.246094 128.289062 502.273438 C 128.308594 502.28125 128.332031 502.292969 128.351562 502.300781 C 128.726562 502.449219 128.648438 502.429688 128.46875 502.355469 C 128.617188 502.421875 128.765625 502.488281 128.910156 502.554688 C 132.523438 504.183594 136.152344 506.265625 139.988281 507.289062 Z M 232.386719 458.578125 C 232.367188 458.84375 232.351562 459.113281 232.332031 459.382812 C 228.949219 460.292969 225.519531 461.140625 222.285156 462.453125 C 219.738281 463.480469 217.214844 464.644531 214.625 465.554688 C 212.800781 466.195312 210.785156 466.457031 208.898438 466.871094 C 204.296875 467.882812 199.878906 469.230469 195.371094 470.613281 C 191.683594 471.746094 188.113281 473.246094 184.421875 474.363281 C 180.105469 475.667969 175.753906 476.535156 171.601562 478.308594 C 169.371094 479.261719 167.15625 480.269531 164.90625 481.175781 C 164.859375 481.175781 164.792969 481.175781 164.679688 481.191406 C 164.164062 481.246094 163.632812 481.414062 163.128906 481.523438 C 161.613281 481.851562 160.097656 482.179688 158.582031 482.507812 C 150.484375 484.257812 142.722656 487.773438 135.0625 490.882812 C 131.503906 492.328125 127.929688 493.722656 124.367188 495.132812 C 123.5 494.777344 122.636719 494.417969 121.765625 494.066406 C 121.34375 493.894531 120.917969 493.71875 120.488281 493.546875 C 120.484375 493.542969 120.484375 493.542969 120.476562 493.539062 C 120.507812 493.558594 120.523438 493.5625 120.558594 493.582031 C 120.519531 493.558594 120.476562 493.542969 120.4375 493.523438 C 120.171875 493.414062 120.058594 493.351562 120.105469 493.367188 C 119.285156 492.972656 118.441406 492.613281 117.617188 492.238281 C 117.042969 491.976562 116.46875 491.714844 115.898438 491.453125 C 116.347656 491.246094 116.796875 491.042969 117.246094 490.835938 C 118.34375 490.332031 119.453125 489.847656 120.546875 489.328125 C 120.601562 489.300781 120.636719 489.285156 120.671875 489.265625 C 120.890625 489.175781 121.113281 489.085938 121.332031 488.996094 C 125.554688 487.261719 129.792969 485.566406 133.957031 483.691406 C 136.242188 482.660156 138.578125 481.703125 140.828125 480.597656 C 140.847656 480.597656 140.855469 480.601562 140.878906 480.597656 C 141.3125 480.550781 141.777344 480.355469 142.199219 480.242188 C 143.589844 479.871094 144.980469 479.496094 146.371094 479.121094 C 150.855469 477.917969 155.257812 476.558594 159.683594 475.164062 C 163.820312 473.863281 167.988281 472.65625 172.125 471.355469 C 175.804688 470.195312 179.351562 468.492188 183.070312 467.480469 C 186.949219 466.421875 191.105469 466.261719 194.90625 464.929688 C 199.148438 463.445312 203.320312 461.875 207.675781 460.78125 C 216.121094 458.660156 224.46875 456.261719 232.8125 453.789062 C 232.667969 455.382812 232.5 456.964844 232.386719 458.578125 Z M 389.40625 588.648438 C 390.054688 590.113281 390.691406 591.582031 391.316406 593.066406 C 391.738281 594.0625 392.160156 595.0625 392.582031 596.058594 C 389.773438 593.484375 386.882812 590.992188 383.835938 588.636719 C 380.261719 585.875 376.695312 583.152344 373.023438 580.527344 C 371.917969 579.734375 370.8125 578.945312 369.707031 578.15625 C 369.445312 577.96875 369.183594 577.753906 368.910156 577.582031 C 366.914062 575.925781 364.878906 574.320312 362.863281 572.6875 C 359.511719 569.976562 355.71875 567.996094 352.039062 565.761719 C 350.621094 564.898438 349.347656 563.78125 348.035156 562.769531 C 346.894531 561.890625 345.753906 561.011719 344.613281 560.128906 C 344.25 559.847656 343.886719 559.566406 343.519531 559.285156 C 343.128906 558.984375 343.203125 559.035156 343.371094 559.164062 C 336.976562 553.886719 330.230469 549.152344 323.261719 544.660156 C 319.554688 542.265625 315.871094 539.851562 312.203125 537.390625 C 311.183594 536.707031 310.167969 536.003906 309.136719 535.332031 C 309.117188 535.316406 309.078125 535.292969 309.035156 535.269531 C 308.917969 535.183594 308.652344 535.003906 308.566406 534.9375 C 306.4375 533.257812 304.308594 531.585938 302.179688 529.910156 C 301.640625 529.488281 301.101562 529.0625 300.566406 528.640625 C 299.308594 527.652344 297.378906 527.5625 296.496094 529.164062 C 294.480469 532.820312 292.632812 536.621094 290.304688 540.089844 C 288.734375 542.425781 287.070312 544.71875 285.582031 547.109375 C 284.535156 548.785156 283.738281 550.652344 282.847656 552.410156 C 282.207031 553.671875 281.515625 554.921875 280.921875 556.207031 C 280.832031 556.398438 280.75 556.570312 280.714844 556.660156 C 280.617188 556.777344 280.527344 556.898438 280.433594 557.011719 C 278.621094 559.289062 276.8125 561.5625 275 563.835938 C 272.46875 567.015625 270.636719 570.722656 268.375 574.09375 C 265.914062 577.765625 263.246094 581.273438 260.976562 585.070312 C 260.179688 586.40625 259.398438 587.769531 258.601562 589.117188 C 259.589844 587.386719 260.597656 585.664062 261.644531 583.929688 C 263.726562 580.464844 265.445312 576.644531 267.0625 572.941406 C 268.269531 570.171875 269.457031 567.390625 270.65625 564.613281 C 271.480469 562.695312 272.789062 560.957031 273.886719 559.183594 C 274.945312 557.472656 276.085938 555.808594 276.941406 553.984375 C 278.207031 551.292969 279.390625 548.546875 280.738281 545.894531 C 282.625 542.175781 285.09375 538.675781 287.300781 535.132812 C 290.070312 530.6875 292.765625 526.230469 295.386719 521.695312 C 297.523438 523.5 299.6875 525.335938 302.058594 526.722656 C 305.605469 528.796875 309.175781 530.792969 312.566406 533.113281 C 319.570312 537.910156 326.640625 542.59375 333.546875 547.53125 C 336.859375 549.898438 340.382812 551.941406 343.835938 554.097656 C 345.195312 554.945312 346.546875 555.8125 347.898438 556.671875 C 349.0625 557.40625 350.222656 558.144531 351.386719 558.882812 C 351.761719 559.121094 352.132812 559.382812 352.519531 559.601562 C 352.558594 559.625 352.574219 559.628906 352.605469 559.644531 C 358.460938 565.277344 365.644531 569.121094 372.050781 574.019531 C 373.347656 575.011719 374.644531 576 375.941406 576.992188 C 376.339844 577.296875 376.742188 577.605469 377.140625 577.910156 C 377.144531 577.914062 377.144531 577.914062 377.148438 577.917969 C 379.023438 579.800781 381.339844 581.378906 383.390625 583.070312 C 385.5 584.808594 387.460938 586.71875 389.40625 588.648438 Z M 417.554688 432.0625 C 416.722656 432.773438 415.863281 433.453125 414.996094 434.121094 C 415.34375 433.785156 415.691406 433.449219 416.039062 433.113281 C 417.824219 431.378906 419.785156 429.828125 421.738281 428.269531 C 420.367188 429.5625 418.984375 430.84375 417.554688 432.0625 Z M 421.535156 421.761719 C 421.125 422.121094 420.707031 422.464844 420.289062 422.816406 C 419.074219 422.679688 417.859375 422.558594 416.644531 422.496094 C 415.015625 422.410156 413.351562 422.53125 411.71875 422.546875 C 410.457031 422.5625 409.191406 422.578125 407.925781 422.589844 C 407.457031 422.59375 406.164062 422.355469 405.78125 422.613281 C 405.777344 422.617188 405.789062 422.621094 405.789062 422.621094 C 405.542969 422.589844 405.292969 422.554688 405.046875 422.519531 C 403.882812 422.363281 402.71875 422.203125 401.554688 422.042969 C 399.597656 421.773438 397.640625 421.503906 395.683594 421.238281 C 391.960938 420.730469 388.078125 420.542969 384.320312 420.414062 C 380.753906 420.289062 377.148438 420.570312 373.578125 420.621094 C 370.046875 420.667969 366.5 420.601562 362.964844 420.558594 C 359.441406 420.511719 355.898438 420.074219 352.382812 419.816406 C 351.101562 419.722656 349.867188 419.964844 348.597656 420.140625 C 346.175781 420.46875 343.753906 420.796875 341.332031 421.128906 C 341.058594 421.164062 340.78125 421.203125 340.503906 421.242188 C 340.488281 421.234375 340.488281 421.226562 340.464844 421.21875 C 339.707031 420.949219 338.300781 421.207031 337.507812 421.203125 C 335.058594 421.1875 332.605469 421.171875 330.152344 421.160156 C 327.003906 421.140625 323.851562 421.140625 320.703125 421.132812 C 319.082031 417.730469 317.578125 414.207031 315.242188 411.265625 C 313.523438 409.105469 311.816406 406.9375 310.089844 404.78125 C 310.101562 404.789062 310.109375 404.792969 310.109375 404.785156 C 310.125 404.488281 309.65625 403.835938 309.535156 403.585938 C 308.882812 402.222656 308.230469 400.859375 307.578125 399.496094 C 306.792969 397.863281 306.136719 396.128906 305.070312 394.660156 C 303.398438 392.351562 301.726562 390.042969 300.054688 387.734375 C 297.785156 384.597656 296.050781 381.070312 293.976562 377.800781 C 292.289062 375.136719 290.589844 372.476562 288.785156 369.890625 C 289.359375 370.582031 289.929688 371.277344 290.507812 371.960938 C 291.960938 373.675781 293.433594 375.375 294.898438 377.085938 C 295.710938 378.03125 296.507812 379 297.339844 379.933594 C 297.363281 379.960938 297.363281 379.960938 297.382812 379.984375 C 297.339844 379.921875 297.292969 379.859375 297.25 379.785156 C 297.296875 379.863281 297.355469 379.933594 297.40625 380.007812 C 297.601562 380.238281 297.566406 380.222656 297.449219 380.074219 C 297.570312 380.25 297.691406 380.429688 297.808594 380.601562 C 300.375 384.363281 302.789062 388.171875 305.804688 391.589844 C 307.4375 393.441406 308.988281 395.625 310.820312 397.292969 C 310.972656 397.695312 311.292969 398.097656 311.507812 398.46875 C 312.246094 399.730469 312.984375 400.992188 313.722656 402.257812 C 316.027344 406.195312 318.289062 410.152344 320.550781 414.113281 C 320.914062 414.753906 321.28125 415.394531 321.648438 416.035156 C 322.238281 417.070312 323.1875 417.394531 324.089844 417.261719 C 338.285156 416.640625 352.453125 416.101562 366.660156 416.039062 C 373.757812 416.007812 380.785156 415.546875 387.875 415.292969 C 391.363281 415.167969 394.953125 415.699219 398.4375 415.933594 C 401.949219 416.171875 405.453125 416.558594 408.957031 416.878906 C 414.441406 417.378906 419.898438 417.882812 425.371094 418.296875 C 424.105469 419.464844 422.832031 420.628906 421.535156 421.761719 Z M 421.535156 421.761719 " fill-opacity="1" fill-rule="nonzero"/></svg>